<svg id="Layer_1" data-name="Layer 1" xmlns="http://www.w3.org/2000/svg" viewBox="0 0 1303.15 1303.15"><defs><style>.cls-1{fill:#fff;}.cls-2{fill:#4d2f42;}.cls-3{fill:#f5931f;}.cls-4{fill:#ca1c25;}.cls-5{fill:#6f9e27;}.cls-6{fill:#502d42;}.cls-7{fill:#f18e1e;}.cls-8{fill:#f3901e;}.cls-9{fill:#512d42;}.cls-10{fill:#4d2e42;}.cls-11{fill:#f18e1d;}.cls-12{fill:#f08e1d;}.cls-13{fill:#f18f1e;}.cls-14{fill:#f08d1d;}.cls-15{fill:#ef8d1d;}.cls-16{fill:#f2901e;}.cls-17{fill:#f08e1e;}.cls-18{fill:#bd1013;}.cls-19{fill:#ea4139;}.cls-20{fill:#4f2e42;}.cls-21{fill:#f5921f;}.cls-22{fill:#f6931e;}.cls-23{fill:#502e41;}.cls-24{fill:#8b0f16;}.cls-25{fill:#4e3043;}.cls-26{fill:#ededed;}.cls-27{fill:#dd7917;}</style></defs><title>2</title><path class="cls-2" d="M769.57,889.47a124,124,0,0,1-246.22.38,332.86,332.86,0,0,0,246.22-.38Z"/><path class="cls-2" d="M987.06,556.21l0,.67a342.12,342.12,0,0,1-473.69,340q-5.51-2.28-11-4.85a338.25,338.25,0,0,1-62.82-37.76c-1.42-1.05-2.83-2.1-4.23-3.22A342.43,342.43,0,0,1,338.2,730.89c-.11-.27-.25-.53-.36-.79A342.11,342.11,0,0,1,460.18,294.36c1.74-1.13,3.51-2.27,5.32-3.38,1.45-.93,2.94-1.83,4.45-2.74q1.13-.72,2.27-1.36c1.34-.8,2.68-1.6,4.05-2.37,3.83-2.19,7.73-4.29,11.65-6.34l.17-.09a340.73,340.73,0,0,1,132.55-37.63C787.3,228.08,934.91,337.3,976.4,493.12c.38,1.4.75,2.77,1.1,4.21q4.07,16,6.6,32.71c.29,1.87.55,3.76.79,5.66.32,2.32.62,4.67.86,7,.23,1.9.43,3.77.6,5.65.12,1.15.23,2.27.31,3.39C986.84,553.21,986.95,554.72,987.06,556.21Z"/><path class="cls-3" d="M976.79,556.94c11,147.81-76.62,280.16-207.22,332.53a124.9,124.9,0,0,0,.48-23.71c-.25-3.32-.61-6.63-1.12-9.86a300.62,300.62,0,0,1-245,.29,123.35,123.35,0,0,0-1.08,27.95c.14,1.91.31,3.81.54,5.72C409.18,844.34,324.89,736.93,315.17,606.11c-13.58-182.69,123.52-341.8,306.24-355.38S963.21,374.25,976.79,556.94Z"/><circle class="cls-2" cx="646.04" cy="582.36" r="309.73" transform="translate(-41.38 49.48) rotate(-4.25)"/><path class="cls-4" d="M945.06,560.92c.11,1.44.21,2.85.29,4.29a302.41,302.41,0,0,1-3,63,10.55,10.55,0,0,1-.16,1c-.32,2.06-.67,4.12-1,6.16-.19,1-.4,2.1-.59,3.17-.51,2.67-1.08,5.33-1.68,8,0,.21-.09.39-.13.6a297.52,297.52,0,0,1-25,70q-3.31,6.71-7,13.22c-1.23,2.16-2.49,4.29-3.77,6.42-2,3.25-4,6.44-6,9.6a300.17,300.17,0,0,1-128,109.43,122.78,122.78,0,0,0-18.41-48.28.65.65,0,0,1-.1-.14q-1.45-2.24-3-4.38c-.53-.73-1.05-1.43-1.57-2.13s-1.05-1.43-1.61-2.12q-1.22-1.55-2.44-3c-.78-.92-1.58-1.83-2.36-2.75s-1.61-1.77-2.44-2.62-1.66-1.74-2.52-2.56c-.7-.72-1.4-1.4-2.13-2.08-1-1-2-1.89-3.07-2.78-.76-.68-1.55-1.36-2.33-2-.19-.16-.38-.33-.57-.46-.66-.57-1.32-1.11-2-1.65-2.17-1.73-4.35-3.37-6.62-4.94-.84-.59-1.68-1.17-2.52-1.73-1-.66-2-1.3-3-1.93a167.45,167.45,0,0,0-15.7-8.75c-3.31-1.64-6.73-3.16-10.17-4.62-.24-.1-.29-.66-.78-1.8,50.23-13.27,89.66-41.2,115.37-86.83,21-37.28,27.47-77.58,19.34-119.13-16.35-83.39-85.15-141.65-168.07-144C561.79,402.55,491,463.72,472.63,547,457,617.74,492.76,725.66,608.36,756.3a151,151,0,0,0-14.75,6.5,162.37,162.37,0,0,0-20.3,12c-4.55,3.14-9,6.55-13.62,10.22,2.16-6.3,3.67-10.19,4.85-14.2,2.48-8.27.79-15.59-5.68-21.57a54,54,0,0,0-18-11.18c-6.92-2.56-14-2.32-19.92,3.22-16.14,15.22-30.06,32.49-44,49.59-7.22,8.86-4.88,22.06,4.42,28.45,11.7,8,23.85,15.5,36.78,21.41,7.64,3.51,7.79,3.2,5,12.5-4.64.73-8.3-2-12-3.92q-80.9-41.14-125.82-120.09C367.42,697.84,356.2,664,350.45,628a302.65,302.65,0,0,1,29.4-183.52c1.5-2.89,3.05-5.78,4.64-8.64q3.6-6.42,7.5-12.66c1-1.55,2-3.07,3-4.59s2-3,3-4.53c2-2.92,4-5.79,6.12-8.63,1.53-2.09,3.09-4.16,4.67-6.22.89-1.16,1.78-2.29,2.7-3.42a291.69,291.69,0,0,1,34.37-36.47c1.55-1.41,3.13-2.8,4.74-4.19q6.11-5.32,12.46-10.25c1-.81,2.09-1.63,3.16-2.42,2.49-1.9,5-3.73,7.53-5.49a298.64,298.64,0,0,1,57.4-31.63c1.55-.65,3.09-1.26,4.67-1.88s3.47-1.32,5.2-2l4.66-1.67c1.87-.64,3.74-1.28,5.65-1.87.72-.26,1.47-.49,2.19-.72l1.07-.34A291.42,291.42,0,0,1,596,286.8q13.68-2.35,27.82-3.4a298.5,298.5,0,0,1,172.31,39.41c1.63.94,3.24,1.91,4.85,2.89s3.19,1.95,4.77,3q1.53.95,3.07,2c.62.37,1.27.79,1.89,1.22,1.27.85,2.58,1.7,3.85,2.61a.61.61,0,0,1,.18.1c1.77,1.23,3.52,2.45,5.27,3.71,1.18.8,2.37,1.65,3.52,2.51s2.22,1.64,3.28,2.47,2,1.53,3,2.34q1.07.76,2.16,1.7c1.41,1.08,2.79,2.18,4.17,3.32s2.77,2.27,4.15,3.47,2.71,2.34,4.07,3.51a302.49,302.49,0,0,1,49.91,56.66c1.36,2,2.69,4,4,6s2.58,4.09,3.85,6.15,2.49,4.12,3.71,6.22v0c1.19,2.1,2.38,4.22,3.54,6.35,1,1.73,1.88,3.49,2.78,5.23,2,3.92,3.95,7.85,5.78,11.82,1.55,3.34,3,6.71,4.41,10.12a296.76,296.76,0,0,1,21.14,79.87c.22,1.78.44,3.57.6,5.36.24,2,.42,4.07.6,6.1C944.89,558.66,945,559.81,945.06,560.92Z"/><path class="cls-4" d="M945.06,560.92c.11,1.44.21,2.85.29,4.29a285.2,285.2,0,0,1-3,63,10.55,10.55,0,0,1-.16,1c-.32,2.06-.67,4.12-1,6.16-.19,1-.4,2.1-.59,3.17-.51,2.67-1.08,5.33-1.68,8,0,.21-.09.39-.13.6a315.93,315.93,0,0,1-18.6,56.32c-2,4.64-4.16,9.19-6.36,13.67s-4.6,8.87-7,13.22c-1.23,2.16-2.49,4.29-3.77,6.42-2,3.25-4,6.44-6,9.6a308.2,308.2,0,0,1-45.58,54c-5,4.77-10.67,4.13-16.63,4.19-1.23-4.19,2.27-5.6,4.22-7.6,3.84-4,8.28-7.38,12-11.46,8.94-9.93,8.41-22.68-1.76-31.28-10.55-8.9-21.67-17.13-32.58-25.62-4.7-3.64-9.39-7.21-14.17-10.73-8.5-6.28-16.25-6.53-25.28-.93a51.11,51.11,0,0,0-15.17,14.79c-5.71,8.22-3.49,16.61,1.23,24.44,8.55,14.18,17.42,28.2,26,42.38,1.58,2.6,4.12,4.95,3.34,9.55-11.51.86-23.25,1.7-35,2.6a7.08,7.08,0,0,1-7-3.17.65.65,0,0,1-.1-.14q-1.45-2.24-3-4.38c-.53-.73-1.05-1.43-1.57-2.13s-1.05-1.43-1.61-2.12q-1.22-1.55-2.44-3c-.78-.92-1.58-1.83-2.36-2.75s-1.61-1.77-2.44-2.62-1.66-1.74-2.52-2.56c-.7-.72-1.4-1.4-2.13-2.08-1-1-2-1.89-3.07-2.78-.76-.68-1.55-1.36-2.33-2-.19-.16-.38-.33-.57-.46-.66-.57-1.32-1.11-2-1.65-2.17-1.73-4.35-3.37-6.62-4.94-.84-.59-1.68-1.17-2.52-1.73-1-.66-2-1.3-3-1.93a167.45,167.45,0,0,0-15.7-8.75c-3.31-1.64-6.73-3.16-10.17-4.62-.24-.1-.29-.66-.78-1.8,50.23-13.27,89.66-41.2,115.37-86.83,21-37.28,27.47-77.58,19.34-119.13-16.35-83.39-85.15-141.65-168.07-144C561.79,402.55,491,463.72,472.63,547,457,617.74,492.76,725.66,608.36,756.3a151,151,0,0,0-14.75,6.5,162.37,162.37,0,0,0-20.3,12c-4.55,3.14-9,6.55-13.62,10.22,2.16-6.3,3.67-10.19,4.85-14.2,2.48-8.27.79-15.59-5.68-21.57a54,54,0,0,0-18-11.18c-6.92-2.56-14-2.32-19.92,3.22-16.14,15.22-30.06,32.49-44,49.59-7.22,8.86-4.88,22.06,4.42,28.45,11.7,8,23.85,15.5,36.78,21.41,7.64,3.51,7.79,3.2,5,12.5-4.64.73-8.3-2-12-3.92q-80.9-41.14-125.82-120.09C367.42,697.84,356.2,664,350.45,628a302.65,302.65,0,0,1,29.4-183.52c1.5-2.89,3.05-5.78,4.64-8.64q3.6-6.42,7.5-12.66c1-1.55,2-3.07,3-4.59s2-3,3-4.53c2-2.92,4-5.79,6.12-8.63,1.53-2.09,3.09-4.16,4.67-6.22.89-1.16,1.78-2.29,2.7-3.42A308.62,308.62,0,0,1,432,372.64q6.75-6.88,13.8-13.28c1.55-1.41,3.13-2.8,4.74-4.19q6.11-5.32,12.46-10.25c1-.81,2.09-1.63,3.16-2.42,2.49-1.9,5-3.73,7.53-5.49a281.83,281.83,0,0,1,57.4-31.63c1.55-.65,3.09-1.26,4.67-1.88s3.47-1.32,5.2-2l4.66-1.67c1.87-.64,3.74-1.28,5.65-1.87.72-.26,1.47-.49,2.19-.72l1.07-.34q10.69-3.36,21.84-6c6.5-1.55,13-2.95,19.62-4.14a246.08,246.08,0,0,1,41.17-4.48c57.14-.91,110.35,12,159,40.49,1.63.94,3.24,1.91,4.85,2.89s3.19,1.95,4.77,3q1.53.95,3.07,2c.62.37,1.27.79,1.89,1.22,1.27.85,2.58,1.7,3.85,2.61a.61.61,0,0,1,.18.1c1.77,1.23,3.52,2.45,5.27,3.71,1.18.8,2.37,1.65,3.52,2.51s2.22,1.64,3.28,2.47,2,1.53,3,2.34q1.07.76,2.16,1.7c1.41,1.08,2.79,2.18,4.17,3.32s2.77,2.27,4.15,3.47,2.71,2.34,4.07,3.51a288.35,288.35,0,0,1,49.91,56.66c1.36,2,2.69,4,4,6s2.58,4.09,3.85,6.15,2.49,4.12,3.71,6.22v0c1.19,2.1,2.38,4.22,3.54,6.35,1,1.73,1.88,3.49,2.78,5.23,2,3.92,3.95,7.85,5.78,11.82,1.55,3.34,3,6.71,4.41,10.12a306.68,306.68,0,0,1,18.88,65q1.31,7.47,2.26,14.89c.22,1.78.44,3.57.6,5.36.24,2,.42,4.07.6,6.1C944.89,558.66,945,559.81,945.06,560.92Z"/><path class="cls-3" d="M976.84,557.62a330.7,330.7,0,0,1-81.75,243c-9.09.47-18.46,1.4-29.59,2.23,4.56-5.39,7.42-8.94,10.48-12.29,46.53-51.13,73.73-111.34,79.35-180,7.22-88.77-17.72-168.15-77.48-235.09C823.65,314.75,755.35,279.53,674.4,273c-97.94-7.89-183,23-252,94.12-46.55,48-74.9,105.55-83.4,171.83-12.33,95.88,13.57,180.59,78.47,252.73,25.1,27.86,54.34,50.81,88.3,66.79,13.09,6.17,19.51,13.52,15.35,28.59a6.49,6.49,0,0,1-3.72.34c-2-.32-3.77-1.43-5.51-2.25s-3.43-1.61-5.11-2.45a382.08,382.08,0,0,1-60.93-36.62c-1.37-1-2.75-2-4.1-3.12-40.77-31.09-72.55-69.82-94.3-116.56-.11-.26-.24-.51-.35-.77A345.45,345.45,0,0,1,325,661.41q-11.71-48.55-10.41-94a302.33,302.33,0,0,1,27.52-119q23.53-51.61,66.81-97.6A314.71,314.71,0,0,1,465.77,303c1.69-1.1,3.41-2.2,5.16-3.28,1.41-.9,2.85-1.78,4.32-2.65q1.1-.7,2.21-1.32c1.3-.78,2.6-1.55,3.93-2.3,30-17.17,62.92-29.15,98.36-36.06,95.35-18.6,183,.21,261.87,56.87Q899.53,355.88,934.39,419c13.7,24.66,24.71,50.12,32.07,76.82.37,1.36.73,2.69,1.07,4.08q1,4,1.92,8c1.24,5.35,2.38,10.73,3.3,16.2q.63,3.76,1.18,7.53c.28,1.81.54,3.65.76,5.49.31,2.25.6,4.53.83,6.79.22,1.84.42,3.66.58,5.48.11,1.11.22,2.2.3,3.28C976.56,554.3,976.72,555.94,976.84,557.62Z"/><path class="cls-1" d="M657.64,747c-84.59,7.72-170.7-56.15-177.08-153.28C474.13,495.91,545.94,422,634.76,416c92.18-6.29,170.16,60.19,177.12,153.62C819.29,669.09,741.66,743.07,657.64,747Z"/><path class="cls-5" d="M654.93,987.72c-63.07,6.64-116.36-45.63-121.45-101.19-5.68-61.91,40.54-118,101.08-124.12,65.54-6.63,120.59,44.34,124.75,104.26C763.7,930.15,714.86,984.59,654.93,987.72Z"/><path class="cls-6" d="M760.7,734.49c5.11-9.06,12.1-16.54,21.95-20.27a18.17,18.17,0,0,1,18.85,3c15.81,13,32,25.51,47.75,38.6,10.36,8.61,11,21.68,1.34,30.93A364.68,364.68,0,0,1,823,810.81c-10.62,8.33-23.9,6.3-30.79-5-10.66-17.45-20.45-35.43-30.61-53.19C758.24,746.77,757.3,740.82,760.7,734.49Z"/><path class="cls-7" d="M790.7,724.13c1.44-.19,4.42,1.5,7.31,3.8,14.21,11.32,28.6,22.4,42.67,33.89,8.17,6.67,8.16,11.34.49,18.44-6.95,6.44-14,12.73-21.31,18.8-8.74,7.29-13.33,6.8-19.11-2.49-9.79-15.76-19.07-31.84-28.78-47.66-3.49-5.69-2.76-10.64,1.9-14.84C778.17,730.2,781.77,725.06,790.7,724.13Z"/><path class="cls-8" d="M554,766.15a36.76,36.76,0,0,1-1.34,5.12c-6.21,16.65-12.29,33.36-18.85,49.88-4.14,10.42-8.64,11.76-18.22,6.2-8.2-4.76-16.43-9.49-24.38-14.64-9.1-5.89-9.81-10-3-18.06q17.67-20.76,35.88-41.07c6.88-7.7,9.42-8,18.27-2.42C547.42,754.38,554.68,756,554,766.15Z"/><path class="cls-6" d="M793.45,451.49c-15.06,1.6-22.6-7.93-29.92-17.22-6.65-8.44-3.84-17,1.21-25.23,9.67-15.77,19.1-31.7,29-47.34,8.6-13.64,21.45-15.44,33.92-4.7,8.65,7.44,17,15.25,25.1,23.3,9.74,9.68,9.16,22.13-1.7,30.77-15.7,12.5-31.87,24.41-47.72,36.73A16.83,16.83,0,0,1,793.45,451.49Z"/><path class="cls-6" d="M766.11,330.91A38.16,38.16,0,0,1,762,345.34c-8.71,15.9-17.28,31.88-26.14,47.7-7.44,13.27-15.06,16.12-29.41,11.59-3-.95-6.09-1.66-9-2.8-10.31-4-15.42-12.26-14.1-23.14,2.28-18.74,4.63-37.47,7.23-56.16,1-7.51,3-14.65,10.72-18.67,4.75-2.48,9.28-4,14.65-2.26,12,3.94,24.06,7.5,36,11.57C760.09,316,764.41,322.33,766.11,330.91Z"/><path class="cls-6" d="M813.13,674.45c.85-10.37,4.07-20.08,11.45-27.59A18.17,18.17,0,0,1,843,641.7c19.8,5.18,39.75,9.77,59.51,15.08,13,3.49,19,15.11,14.16,27.53a364.68,364.68,0,0,1-15,33.4c-6.16,12-19.07,15.72-30.06,8.35-17-11.39-33.4-23.63-50.06-35.5C816,686.64,812.68,681.62,813.13,674.45Z"/><path class="cls-6" d="M499.66,705.82c.77,6-1.52,11.3-5.85,15.77-14,14.45-27.78,29.12-42.18,43.15-9.24,9-23.26,7.91-31.44-2.46a332.42,332.42,0,0,1-21.54-31.13c-5.9-9.55-2.43-21.22,7.88-27.61,5.66-3.51,12-5.9,18.09-8.75,11.43-5.36,22.85-10.73,34.33-16,14.74-6.75,22.94-4.45,32.26,8.87C499.13,699,499.28,699.3,499.66,705.82Z"/><path class="cls-9" d="M403.11,434.6c-1-6.15.79-11.19,4.32-15.75,6.26-8.09,12.35-16.31,18.76-24.28,10.74-13.35,23.13-14,35.08-1.42,13,13.7,25.61,27.75,38.06,41.95,9.32,10.64,9.13,19.45.22,30.64-14.83,18.63-19.87,19.71-40.86,8.91-14.34-7.38-28.8-14.54-43-22.12C408.46,448.71,402.36,443.72,403.11,434.6Z"/><path class="cls-6" d="M846.56,523.46c-15.2,1.31-21.28-1.95-26.24-11.56-1.45-2.8-2.92-5.61-4.13-8.52-5.42-13.06-2.6-22.9,9-30.89q21.44-14.8,43-29.36c3.91-2.64,7.81-5.23,12.8-5.8,9.74-1.11,17.38,2.24,21.61,10.95,5.17,10.64,10.15,21.42,14.41,32.45,5.61,14.55-.55,25.43-16,29.31C881.54,514.91,862,519.64,846.56,523.46Z"/><path class="cls-6" d="M934.83,574.77c1.27,9.08-.15,18.12-.53,27.16-.45,10.67-7.17,17.51-17.74,18.64a33.44,33.44,0,0,1-9.43.05c-18.21-3.34-36.43-6.67-54.54-10.52-13.54-2.87-18.12-9-19.2-23a46.43,46.43,0,0,1,1.53-16.4c2.1-7.37,6.79-12.6,14.45-14.16,13.87-2.83,27.83-5.28,41.76-7.83,4.64-.85,9.3-1.37,13.93-2.58,17.86-4.69,27.92,2.9,29.25,21.57C934.47,570,934.66,572.41,934.83,574.77Z"/><path class="cls-6" d="M532.47,318.09c10.58-.86,18,3.52,21.77,14.28,6.61,19,12.68,38.11,18.73,57.26a19.32,19.32,0,0,1,.55,9.36c-2.83,13.59-14.4,18.26-25.31,22.47-9.37,3.61-17.82-.14-24.17-7.95-7.45-9.18-14.82-18.43-22.25-27.63q-6.32-7.82-12.72-15.58c-10.18-12.33-8.27-26,5.24-34,9.48-5.65,19.36-10.63,29-16A21.54,21.54,0,0,1,532.47,318.09Z"/><path class="cls-6" d="M462.45,620.63c1.64,17.48-.83,21.6-16.45,27.86s-31.44,12.69-47.32,18.62c-9.56,3.57-19.1,5-27.36-3.65A23,23,0,0,1,365.51,652c-2.24-10.78-4.37-21.64-5.63-32.57-1.81-15.69,7.62-26.18,23.41-25.56,18.51.73,37-.16,55.49.12,12.63.2,20.82,7,22.79,19.44C462,616.17,462.24,618.93,462.45,620.63Z"/><path class="cls-6" d="M439.86,561.14c-20.39-1-40.8-1.76-61.15-3.28-11-.83-19.6-12.55-17.51-23.92a350.41,350.41,0,0,1,8.92-36.68c3.5-11.73,15.51-17.55,27.56-12.79,18.67,7.37,37,15.61,55.27,23.95,8.61,3.93,12.92,11,12.42,20.89a50.86,50.86,0,0,1-4,18.33C457.31,556.69,450.41,561.93,439.86,561.14Z"/><path class="cls-6" d="M625.81,294.59c5.12-.38,10.24-.9,15.37-1.12,15.59-.66,24.51,8.71,22.9,24-2,18.8-3.92,37.6-6,56.4-1.45,13.28-7.11,18.89-20.19,20.21-3.54.36-7.09.62-10.64.8-13.53.72-20-3.67-23.46-16.42-5-18.64-9.83-37.33-14.58-56-3.47-13.66,3.84-24.59,17.65-26.35,6.26-.8,12.6-1,18.91-1.46Z"/><path class="cls-5" d="M657.62,723c-77.75,8-145.92-52.12-152-130.38-5.89-75.72,53.1-145.84,130.67-151.47C712,435.6,783,491.62,789,571.76,794.77,649.36,736.39,719.21,657.62,723Z"/><path class="cls-10" d="M747.41,869c6.17,50.79-36.09,104.77-94.16,108.16-55.9,3.27-104.55-35.66-109.1-95.09-4.44-58,41.2-105,95.37-108.76S746.5,813.14,747.41,869Z"/><path class="cls-7" d="M791.31,441.32c-6.1-.08-9.07-4.17-12.57-7.2-10-8.63-10.14-10.36-3.17-21.82q11.69-19.21,23.37-38.42a69.24,69.24,0,0,1,4.58-6.9c5.22-6.62,9.58-7.41,16-2.13,8.21,6.77,16.2,13.85,23.94,21.17,5.78,5.46,6.15,11.68.36,16.31C828.1,414.9,812,426.94,796,439.1A22.05,22.05,0,0,1,791.31,441.32Z"/><path class="cls-11" d="M694.14,379.91c1.51-12.2,3.12-25.49,4.82-38.76.8-6.24,1.58-12.5,2.69-18.69,1.56-8.66,6-12,14-9.8,10.62,2.95,21.12,6.43,31.45,10.27,7,2.58,9.26,7.58,5.93,14.09-9.15,17.89-18.88,35.48-28.54,53.1a9,9,0,0,1-8.8,5,40.46,40.46,0,0,1-17.73-5.93C695.08,387.5,694,384.37,694.14,379.91Z"/><path class="cls-7" d="M883.81,717.88c-3.44.53-6.06-1.25-8.67-3.06-15.2-10.54-30.52-20.93-45.55-31.72-6.87-4.93-7.38-8.34-3.95-16.32,1.24-2.89,2.68-5.7,4.17-8.48,2.54-4.72,6.55-6.87,11.8-5.59,19.12,4.64,38.29,9.16,57.26,14.35,7.51,2.05,9.84,7.54,6.89,14.79-4,9.84-8.61,19.44-13.15,29.05C890.88,714.56,888.34,717.58,883.81,717.88Z"/><path class="cls-12" d="M469.06,687c4.67-.85,7.61.14,9.85,2.65a61.92,61.92,0,0,1,5,6.6c7.41,10.92,7.53,11.58-1.55,21.06-12,12.53-24.21,24.85-36.48,37.11-7.38,7.36-12.06,7.24-18.44-1-6.24-8.12-12-16.62-17.5-25.28-4.51-7.14-3.59-12.59,3.26-15.9,17.73-8.58,35.78-16.5,53.72-24.64A6.71,6.71,0,0,1,469.06,687Z"/><path class="cls-13" d="M494.52,451.09c-.8,6.36-6.63,11.58-11.55,16.88-4.06,4.37-9.54,1.8-14.25-.62-15.44-7.92-31-15.65-46.31-23.78-11.17-5.92-11.87-9.89-4.14-20.24,5.66-7.58,11.26-15.24,17.38-22.45,5.68-6.7,11.26-7,17-.82,12.87,13.87,25.42,28.05,38.09,42.12A12.36,12.36,0,0,1,494.52,451.09Z"/><path class="cls-14" d="M840.52,513.21a8.27,8.27,0,0,1-8.54-3.86,88.47,88.47,0,0,1-7.28-14.8c-1.66-4.57.48-8.57,4.4-11.27,16.56-11.42,33.07-22.92,49.83-34,5.12-3.4,10-2.22,13.08,3.32a164.84,164.84,0,0,1,14.66,33.52c2.13,7.14-.38,11.38-7.94,13.31C879.67,504.26,860.44,508.52,840.52,513.21Z"/><path class="cls-15" d="M844.82,584.38c-.88-14.44,1.39-16.93,15.75-19.24,15.95-2.56,31.78-5.87,47.74-8.33,12-1.86,16.61,2,15.9,13.78-.5,8.3-.26,16.55-.23,24.83,0,12.06-4.12,15.89-15.69,13.87q-25-4.38-50-9.35C846.44,597.54,845.55,596.21,844.82,584.38Z"/><path class="cls-13" d="M562.65,393.44c.25,5-1.3,8.75-5.62,11.18-3.09,1.74-6.3,3.28-9.33,5.12C542,413.21,537,412.05,533,407.17c-12-14.69-23.93-29.37-35.46-44.39-5.72-7.45-4.57-13.19,3.24-17.76,9.18-5.38,18.63-10.34,28.2-15,6.56-3.19,11.59-2.05,13.78,4C549.81,353.71,556.08,373.63,562.65,393.44Z"/><path class="cls-16" d="M389.87,604.84c14.08.72,28.68.1,43.28-.14,13.86-.22,22.23,10.48,19.56,24-.85,4.28-3.69,6.88-7.59,8.41-18,7-36,14.23-54.12,21-7.27,2.7-12.5-.17-14.26-7.78-2.49-10.75-4.45-21.63-6.26-32.52-1.16-7,2.27-11.17,9.39-12.13C383,605.19,386.16,605.11,389.87,604.84Z"/><path class="cls-17" d="M443,550.2c-14.82-.66-28.2-1.25-41.58-1.87-5.9-.28-11.84-.34-17.7-1-9.59-1.14-12.79-5-11.07-14.26,1.94-10.46,4.42-20.86,7.31-31.11,2.22-7.85,7-10.3,14.45-7.16Q421.2,506,447.51,518.25c7.19,3.36,8,6.33,6.39,14.46a93.55,93.55,0,0,1-2.47,10.36A10.28,10.28,0,0,1,443,550.2Z"/><path class="cls-13" d="M626.25,304.83c5.1-.38,10.2-1.12,15.3-1.06,8.56.11,12.47,4,11.74,12.53-1.61,18.76-3.65,37.49-5.92,56.19-.95,7.8-4.43,10.55-12.45,11.61-1.56.21-3.13.29-4.7.39-11.12.7-13.7-.92-16.75-11.93q-5.82-21-11-42.16c-5.49-22.51-4.62-23.54,19.06-25.3l4.71-.35Z"/><path class="cls-2" d="M637.1,450.88C710.31,446.2,772,499.82,777,572.21c4.94,70.8-45,134.62-121.1,140.28C581.53,718,520.77,664.75,515.52,591.68,510.08,515.95,564.75,456.52,637.1,450.88Z"/><path class="cls-18" d="M652.6,966.06c-46.32,4.76-93.89-31.62-97.27-84.32-3-46.67,28.28-92.63,83.31-97.25C691.94,780,733,819,737.08,867.85,741.76,924.19,697.06,964.45,652.6,966.06Z"/><path class="cls-19" d="M766,574.34c6.32,63.28-45.56,123.8-112.19,128.07-64,4.1-123.72-46.54-127.85-113-4-64.07,47.39-123.81,113.3-127.53C704.2,458.25,763.78,509.95,766,574.34Z"/><path class="cls-6" d="M642.3,821.3c26.53-4.53,56.72,17,59.13,49.81,2.35,31.93-22.76,57.75-51.77,59.38-30.09,1.69-56.75-21.08-58.49-51.14C589.48,849.94,611.65,821.53,642.3,821.3Z"/><path class="cls-20" d="M638.6,474.29C698,468.44,750.39,517,754.48,574.52c4.19,59-42.89,111.94-100.6,115.94-59,4.09-111.72-42.3-115.94-100.63C533.7,531.24,580.09,476.7,638.6,474.29Z"/><path class="cls-21" d="M649.29,918.83c-24.53,1.79-44.85-15.49-46.8-39.79A43.94,43.94,0,0,1,643,831.28c24-1.8,45.43,17.17,47.1,41.58C692,900,668.66,919.41,649.29,918.83Z"/><path class="cls-22" d="M743.55,575.13c3.77,53.47-32.78,99.5-89.85,104.18a98.76,98.76,0,0,1-47.14-7.48C574.83,658.25,552,628.1,549,590c-4.45-56.38,35.1-99.67,89.83-105.68a105.51,105.51,0,0,1,42.49,6.5C715.18,503.56,740.64,533.9,743.55,575.13Z"/><path class="cls-23" d="M621.68,876.9c-1-13.31,9.94-25.64,23.27-26.33,12.61-.65,24.93,10,26,22.59,1.14,13.31-9.46,25.63-22.89,26.61A24.43,24.43,0,0,1,621.68,876.9Z"/><path class="cls-24" d="M646.9,887.88c-8.28.78-12.81-3-13.4-11.18-.56-7.75,4.71-14.28,12-14.83a13.45,13.45,0,0,1,13.94,11.67C660.12,880.79,654.58,887.15,646.9,887.88Z"/><path class="cls-25" d="M657.67,548l-27.24,66c-10.87-4.89-18.11-15.27-19.25-29.09-2.55-20.39,12.46-36.88,32.66-38.79A31.55,31.55,0,0,1,657.67,548Z"/><path class="cls-25" d="M628.4,618.92l32.22-78.1c12.86,5.78,21.42,18.07,22.78,34.41,3,24.11-14.74,43.63-38.63,45.89A37.33,37.33,0,0,1,628.4,618.92Z"/><path class="cls-26" d="M621.57,583.86a24.76,24.76,0,0,1,49.33-4.18,24.76,24.76,0,1,1-49.33,4.18Z"/><path class="cls-27" d="M743.55,575.13c3.77,53.47-32.78,99.5-89.85,104.18a98.76,98.76,0,0,1-47.14-7.48L630.43,614a37.77,37.77,0,0,0,19.41,3,35.37,35.37,0,0,0,32.35-38.12c-1-13.71-11.51-26.21-24.53-30.91l23.62-57.19C715.18,503.56,740.64,533.9,743.55,575.13Z"/><path class="cls-18" d="M475.83,1015.73c2.93-5.9.92-10.52-5.93-14.16l7.3-13.75c11.13,5.47,23.45,14.38,25.14,27.68a20.14,20.14,0,0,1-1.64,10l-25.62,60.34c-5.81,13.07-23.12,12.59-34.68,9.4-5.35-1.27-12.14-4-20.22-8.29a56.69,56.69,0,0,1-20.71-19.71c-5.68-8.81-6.34-16.38-2.35-22.55l35.49-54.84c3.58-5.53,2.68-10-2.61-13.6s-10.06-3.27-14.44,1.13L364,1049.35c-10-7.22-15-11-24.7-18.86L395,961.6c3.16-5.34,1.64-10.46-4.42-15.7s-11.34-5.66-15.78-.79l-43,47.2c-4.44,4.87-3.36,10.39,3.42,16.26l-10,11.52c-11.35-11.08-33.53-32.4-17.26-49l46.49-45.05c9.48-9.14,23.61-6.05,34-.3,4.13,2.07,9.2,5.8,15.38,11s9.42,11,9.79,17.56c6.73-1,13.39.94,20.3,5.78s11.8,8.79,14.6,12.14a41.62,41.62,0,0,1,6.52,10.5c3.43,8.06,3.63,15.13.16,21.26l-31.19,55.19c-3.61,6.4-1.43,11.92,6.68,16.23s13.84,3.07,17-3.37Z"/><path class="cls-18" d="M625.25,1040.45c-.84-.73-1.67-1.42-2.51-2.07-5.67-4.44-11.29-7.17-17.1-8.14a70.08,70.08,0,0,0-16.74-1.14c-11.51.45-25.35,4.68-28.78,17.14q-8.21,30.84-16.41,61.69c-1.89,7.1-7,9.6-15.32,7.17s-11.4-6.92-9.38-13.2q9.84-30.78,19.71-61.57c2.05-6.42,7.41-8.17,16.17-5.68,1.7-5.93,2.55-8.91,4.25-14.86-15.23-4.72-37.48-7.9-44.86,10.36L490,1092.91c-2.54,6.56-.61,13.54,6.18,20.71a53.28,53.28,0,0,0,23.1,14.73c8.51,2.6,15.58,3.91,21.12,4.08,12.11,1,29.2-1.94,32.25-16.11q6.49-31.87,13-63.77c1.34-6.6,5.72-9.1,13.18-7.8,7.26,1.28,10.54,4.89,9.8,11.09a.14.14,0,0,0,0,.06c0,.14,0,.29-.05.43-.18,1.17-.36,2.36-.52,3.54,0,.23,0,.47-.05.71q-2,41.35-3.93,82.7h.45c12.07-1.26,23.18-6.29,24.08-19.28l5.86-64.69C635.07,1052.39,631.84,1046.19,625.25,1040.45Z"/><path class="cls-18" d="M708.71,1054.1a24.24,24.24,0,0,0-4.58-10.39c-7.84-10.47-20.66-14.5-33.34-12.92-10.53,1-15.81,1.38-26.38,1.75a47,47,0,0,0-13.54,2.42,40,40,0,0,0-8.13,3.42c-6.85,3.85-12.3,9.76-14.12,17.46a.14.14,0,0,0,0,.06,22.21,22.21,0,0,0-.57,4c0,.23,0,.47-.05.71q-2,41.35-3.93,82.7h.45a609,609,0,0,0,118.79-7.7Zm-59,29.39q-1.07,19-2.48,38.06a8.88,8.88,0,0,1-4.57,7.19c-3,.08-4.49.1-7.49.14q-.31-27.09-.6-54.18a9.35,9.35,0,0,1,7.22-2.53C647.46,1072.48,650.13,1076.2,649.73,1083.49Zm20.69,43.69a9,9,0,0,0,2.92-6.74q.73-19.55,1.06-39.1c.1-7.39-2.94-13.39-8.63-18.17s-11.35-7-17.36-6.79-10.2.89-12.57,2.07q1-1.84,3-5.33c1.33-2.34,4.22-3.55,8.73-3.74,7.84-.32,11.74-.57,19.56-1.24,2.25-.19,5.22.43,9,1.83s6,5.25,6.82,11.63q3.77,31.87,7.57,63.74C682.47,1126.21,678.46,1126.58,670.42,1127.18Z"/><path class="cls-18" d="M836,1096.33a22.74,22.74,0,0,1-12,10.9c-5.17,2-9.24,3.53-12.17,4.59-10.29,3.74-15.48,5.47-25.91,8.67-15.63,5.55-34.14,3.73-46.34-8a22.37,22.37,0,0,1-6.11-11.23L722,1046.77c-2.59-12.78,7-23.23,17.3-29.14,3.85-2.45,9.19-4.63,16-6.74a25.26,25.26,0,0,1,20,2c2.15-6.58,6.72-11.19,13.89-14.13S802,994,806.32,993.44a39.17,39.17,0,0,1,12.31.28c8.51,1.62,14.57,5.41,17.91,11.78l26.56,50.6c3.45,6.57,2.1,13-4.35,19.17,6.83-3.37,10.21-5.12,16.94-8.76,8.61-4.66,11.16-10.06,7.83-15.84l-31-53.61c-3.3-5.71-8.34-6.53-15.24-2.79l-7.42-13.68c10.63-6.09,24.07-10.17,35.84-4.8a18.74,18.74,0,0,1,7.54,6.74l34.28,52.24c7.76,11.94-.59,26.06-9.7,34.38a67.07,67.07,0,0,1-15.53,11.09c-7.61,4.1-11.44,6.07-19.17,9.84C850.25,1096.37,841.09,1098.22,836,1096.33Zm-88.7-56.53L762.26,1094c1.87,6.79,5.14,10.64,9.88,11.44s8.42.77,11,0c7.63-2.36,11.42-3.62,19-6.28-6.73.13-11-2.61-12.76-8l-19.6-58.85c-1.94-5.82-6.56-7.46-13.92-5.23S745.6,1033.45,747.35,1039.8Zm83.76,44.92c7.12-5,9.33-10.35,6.85-15.8l-24.2-53.15c-2.73-6-7.19-7.54-13.46-4.87s-8.3,6.74-6,12.44l21.93,54.86C818.68,1084.4,823.65,1086.66,831.11,1084.72Z"/><path class="cls-18" d="M995.89,966c5.33,5.17,6.44,11.76,3,19.7-12.09,22.77-26.79,40.44-52.6,47.93-11.26,3-19,1-23.37-5.19l-23.39-33.27c-7.87-11.73.59-26,8.84-34.77A151.1,151.1,0,0,1,922,947.13c5.7-5,13.13-9,22.5-12.17s16.77-2.5,22.15,2.72Zm-48.95,42.7c4.11,5.15,10.57,4.31,19.12-3s10.47-13.64,6-18.51l-25.47-28c-4.44-4.87-10.33-3.84-17.93,2.66s-9.47,12.11-5.36,17.26Z"/></svg>